<?xml version="1.0" standalone="no"?><!DOCTYPE svg PUBLIC "-//W3C//DTD SVG 1.1//EN" "http://www.w3.org/Graphics/SVG/1.1/DTD/svg11.dtd"><svg t="1758098814748" class="icon" viewBox="0 0 1024 1024" version="1.1" xmlns="http://www.w3.org/2000/svg" p-id="38843" xmlns:xlink="http://www.w3.org/1999/xlink" width="200" height="200"><path d="M819.2 102.4a102.4 102.4 0 0 1 102.4 102.4v614.4a102.4 102.4 0 0 1-102.4 102.4H204.8a102.4 102.4 0 0 1-102.4-102.4V204.8a102.4 102.4 0 0 1 102.4-102.4h614.4z m0 51.2H204.8a51.2 51.2 0 0 0-50.8416 45.2096L153.6 204.8v614.4a51.2 51.2 0 0 0 45.2096 50.8416L204.8 870.4h614.4a51.2 51.2 0 0 0 50.8416-45.2096L870.4 819.2V204.8a51.2 51.2 0 0 0-45.2096-50.8416L819.2 153.6z" fill="#1296db" p-id="38844"></path><path d="M537.7536 716.8v-166.4L716.8 307.2h-62.208L512 506.88 369.408 307.2H307.2l179.0464 243.2V716.8z" fill="#1296db" p-id="38845"></path></svg>